JOE ZAWINAL WEATHER UPDATE 
Studio: Geneon [Pioneer] 
Recorded : July 7, 1986 at The Philharmonic Hall Munich, Germany
DVD Release Date: September 20, 2005 
Run Time: 60 minutes
Format: xvid


Legendary synthesist Joe Zawinul is one of the most highly regarded and innovative figures in fusion history, combining elements of jazz, gospel, R&B, African and South American music. Weather Update is a follow up to the influential band Weather Report, and a precursor to the Zawinul Syndicate. The live production featured on this DVD is the only existing recording of Weather Update. 

Program List:
1. Harvest 
2. Dr. Honoris Causa 
3. Update 
4. Consequently 
5. Face the Fire 
6. This Is This 
7. Badia/Boogie Woogie Waltz 


Band Members:Joe Zawinul - Keyboards and synthesizers
Victor Bailey - Bass
Robert Thomas Jr. - Percussion
Peter Erskine - Drums
Steve Khan – Guitar



General
Complete Name   : Joe Zawinul  - Weather Update (1986)
Format                 : AVI
File size                        : 610 MiB
Duration                         : 59mn 20s
Overall bit rate                 : 1 438 Kbps

Video
ID                               : 0
Format                           : MPEG-4 Visual
Format profile                   : Simple@L3
Format settings, BVOP            : No
Format settings, QPel            : No
Format settings, GMC             : No warppoints
Format settings, Matrix          : Default (H.263)
Codec                             : XviD
Bit rate                         : 1 201 Kbps
Width  x  Height          : 640 x 480 pixels
Display aspect ratio      : 4:3
Frame rate                       : 29.970 fps
Color space                      : YUV
Chroma subsampling               : 4:2:0
Bit depth                        : 8 bits
Scan type                        : Progressive
Compression mode                 : Lossy
Bits/(Pixel*Frame)               : 0.130
Stream size                      : 509 MiB (83%)
Writing library                  : XviD 1.1.0 Beta2 (UTC 2005-04-04)

Audio
ID                               : 1
Format                        : MPEG Audio Version 1 Layer 3 
Mode                          : Joint stereo
Codec ID                    : 55
Codec ID/Hint            : MP3
Bit rate                        : 224 Kbps Constant
Channel(s)                  : 2 channels
Sampling rate             : 44.1 KHz
Compression mode     : Lossy
Stream size                 : 95.1 MiB (16%)
Alignment                   : Aligned on interleaves
Interleave, duration             : 26 ms (0.78 video frame)
Writing library                  : LAME3.96.1
